# xmcd CD database file
#
# Track frame offsets:
#	150
#	8645
#	27715
#	36938
#	61948
#	63860
#	83034
#	87196
#	105290
#	108138
#	127969
#	148001
#
# Disc length: 2265 seconds
#
# Revision: 0
# Processed by: cddbd v1.5.2PL0 Copyright (c) Steve Scherf et al.
# Submitted via: CDex 1.70beta2
#
DISCID=8e08d70c
DTITLE=Frank Garrett - Caelum Moor
DYEAR=2004
DGENRE=New Age
TTITLE0=Morna Linn, I
TTITLE1=Tolmen Barrow, II
TTITLE2=Tan Tara, I
TTITLE3=Sarsen Caer, II
TTITLE4=De'Danann, I
TTITLE5=De'Danann, II
TTITLE6=Sarsen Caer, I
TTITLE7=Tan Tara, II
TTITLE8=Tolmen Barrow, I
TTITLE9=Morna Linn, II
TTITLE10=Cm/Endure
TTITLE11=Ml3
EXTD=YEAR: 2004
EXTT0=
EXTT1=
EXTT2=
EXTT3=
EXTT4=
EXTT5=
EXTT6=
EXTT7=
EXTT8=
EXTT9=
EXTT10=
EXTT11=
PLAYORDER=
